<svg width="76" height="20" viewBox="0 0 76 20" fill="none" xmlns="http://www.w3.org/2000/svg">
<path d="M1.4 17V2.6H11.7C16.44 2.6 18.08 4.2 18.08 6.22C18.08 7.88 16.9 8.98 14.84 9.3V9.42C17.92 9.74 18.98 11.12 18.98 13C18.98 15.34 17.18 17 12.06 17H1.4ZM6.36 13.62H11.8C13.14 13.62 13.72 13.2 13.72 12.44C13.72 11.72 13.14 11.3 11.8 11.3H6.36V13.62ZM6.36 8.16H11.08C12.34 8.16 12.92 7.8 12.92 7.06C12.92 6.28 12.34 5.96 11.04 5.96H6.36V8.16ZM29.6541 17.4C23.6941 17.4 20.5741 15.04 20.5741 9.94V2.6H25.7141V9.9C25.7141 12.5 26.8741 13.5 29.7341 13.5C32.6941 13.5 33.7741 12.52 33.7741 9.9V2.6L38.7741 2.58V9.94C38.7741 15.04 35.7741 17.4 29.6541 17.4ZM40.8214 17V13.02L50.1614 6.32V6.18H41.1614V2.6H56.6414V6.58L47.3214 13.28V13.42H56.9814V17H40.8214ZM58.6339 17V13.02L67.9739 6.32V6.18H58.9739V2.6H74.4539V6.58L65.1339 13.28V13.42H74.7939V17H58.6339Z" fill="#1F1F1F"/>
</svg>
