<svg width="20" height="20" viewBox="0 0 20 20" fill="none" xmlns="http://www.w3.org/2000/svg">
<path d="M5.625 16.0417L8.68117 15.3226L15.5577 8.44608C16.203 7.80075 16.203 6.7544 15.5577 6.10903C14.9123 5.46366 13.8659 5.46366 13.2206 6.10903L6.34411 12.9855L5.625 16.0417Z" stroke="#1F1F1F" stroke-width="1.3" stroke-linecap="round" stroke-linejoin="round"/>
<path d="M5.625 5.83333C7.5 5.83333 7.5 3.95833 7.5 3.95833C7.5 3.95833 7.5 5.83333 9.375 5.83333C7.5 5.83333 7.5 7.70833 7.5 7.70833C7.5 7.70833 7.5 5.83333 5.625 5.83333Z" stroke="#1F1F1F" stroke-width="1.3" stroke-linecap="round" stroke-linejoin="round"/>
<path d="M3.95834 9.16667C5.00001 9.16667 5.00001 8.125 5.00001 8.125C5.00001 8.125 5.00001 9.16667 6.04168 9.16667C5.00001 9.16667 5.00001 10.2083 5.00001 10.2083C5.00001 10.2083 5.00001 9.16667 3.95834 9.16667Z" stroke="#1F1F1F" stroke-width="1.3" stroke-linecap="round" stroke-linejoin="round"/>
</svg>
