<svg width="20" height="20" viewBox="0 0 20 20" fill="none" xmlns="http://www.w3.org/2000/svg">
<path d="M13.3333 8.12499H4.79168C4.33144 8.12499 3.95834 8.49808 3.95834 8.95833V14.375C3.95834 15.2955 4.70454 16.0417 5.62501 16.0417H14.375C15.2955 16.0417 16.0417 15.2955 16.0417 14.375V8.95833C16.0417 8.49808 15.6686 8.12499 15.2083 8.12499H13.3333ZM13.3333 8.12499L15.2083 3.95833M8.95834 11.875H11.0417M10 3.95833C10 3.95833 10 4.99999 8.95834 4.99999C10 4.99999 10 6.04166 10 6.04166C10 6.04166 10 4.99999 11.0417 4.99999C10 4.99999 10 3.95833 10 3.95833ZM6.25001 4.79166C6.25001 4.79166 6.25001 5.41666 5.62501 5.41666C6.25001 5.41666 6.25001 6.04166 6.25001 6.04166C6.25001 6.04166 6.25001 5.41666 6.87501 5.41666C6.25001 5.41666 6.25001 4.79166 6.25001 4.79166Z" stroke="#1F1F1F" stroke-width="1.3" stroke-linecap="round" stroke-linejoin="round"/>
</svg>
