<svg width="20" height="20" viewBox="0 0 20 20" fill="none" xmlns="http://www.w3.org/2000/svg">
<path d="M16.0417 7.70834V7.29167C16.0417 6.84964 15.8661 6.42572 15.5535 6.11316C15.241 5.8006 14.817 5.625 14.375 5.625H5.62501C5.18298 5.625 4.75906 5.8006 4.4465 6.11316C4.13394 6.42572 3.95834 6.84964 3.95834 7.29167V14.375C3.95834 14.817 4.13394 15.241 4.4465 15.5535C4.75906 15.8661 5.18298 16.0417 5.62501 16.0417H7.70834M12.5 11.4583V12.5L13.5417 13.5417M6.66668 3.95834V6.875M13.3333 3.95834V6.875M12.5 16.0417C11.5607 16.0417 10.6599 15.6685 9.99567 15.0043C9.33148 14.3401 8.95834 13.4393 8.95834 12.5C8.95834 11.5607 9.33148 10.6599 9.99567 9.99567C10.6599 9.33147 11.5607 8.95834 12.5 8.95834C13.4393 8.95834 14.3402 9.33147 15.0043 9.99567C15.6685 10.6599 16.0417 11.5607 16.0417 12.5C16.0417 13.4393 15.6685 14.3401 15.0043 15.0043C14.3402 15.6685 13.4393 16.0417 12.5 16.0417Z" stroke="#1F1F1F" stroke-width="1.3" stroke-linecap="round" stroke-linejoin="round"/>
</svg>
