<svg width="20" height="20" viewBox="0 0 20 20" fill="none" xmlns="http://www.w3.org/2000/svg">
<path d="M7.41073 3.95833H5.05683C4.45015 3.95833 3.95834 4.45014 3.95834 5.05681C3.95834 11.1236 8.87643 16.0417 14.9432 16.0417C15.5498 16.0417 16.0417 15.5498 16.0417 14.9432V12.5892L13.4524 10.8631L12.1098 12.2057C11.8766 12.4389 11.5281 12.5114 11.2351 12.3601C10.7382 12.1033 9.93176 11.621 9.13693 10.8631C8.32308 10.0871 7.84624 9.25091 7.60692 8.745C7.47279 8.46141 7.55044 8.13409 7.77225 7.91228L9.13693 6.54761L7.41073 3.95833Z" stroke="#1F1F1F" stroke-width="1.3" stroke-linecap="round" stroke-linejoin="round"/>
<path d="M16.0417 3.95833L12.2917 7.70833" stroke="#1F1F1F" stroke-width="1.3" stroke-linecap="round" stroke-linejoin="round"/>
<path d="M12.2917 4.79167V7.70834H15.2083" stroke="#1F1F1F" stroke-width="1.3" stroke-linecap="round" stroke-linejoin="round"/>
</svg>
