<svg width="20" height="20" viewBox="0 0 20 20" fill="none" xmlns="http://www.w3.org/2000/svg">
<path d="M16.0417 10.2083C16.0417 13.5451 13.3368 16.25 10 16.25C6.66329 16.25 3.95834 13.5451 3.95834 10.2083C3.95834 6.87161 6.66329 4.16666 10 4.16666C13.3368 4.16666 16.0417 6.87161 16.0417 10.2083Z" stroke="#1F1F1F" stroke-width="1.3" stroke-linecap="round" stroke-linejoin="round"/>
<path d="M10 11.875C9.65483 11.875 9.375 12.1548 9.375 12.5C9.375 12.8452 9.65483 13.125 10 13.125V11.875ZM10.0083 13.125C10.3535 13.125 10.6333 12.8452 10.6333 12.5C10.6333 12.1548 10.3535 11.875 10.0083 11.875V13.125ZM10 13.125H10.0083V11.875H10V13.125Z" fill="#1F1F1F"/>
<path d="M10 7.29166V10.2083" stroke="#1F1F1F" stroke-width="1.3" stroke-linecap="round" stroke-linejoin="round"/>
</svg>
