<svg width="20" height="20" viewBox="0 0 20 20" fill="none" xmlns="http://www.w3.org/2000/svg">
<path d="M7.50001 5.625H6.45834C5.53786 5.625 4.79167 6.37119 4.79167 7.29167V14.375C4.79167 15.2955 5.53786 16.0417 6.45834 16.0417H13.5417C14.4622 16.0417 15.2083 15.2955 15.2083 14.375V7.29167C15.2083 6.37119 14.4622 5.625 13.5417 5.625H12.5" stroke="#1F1F1F" stroke-width="1.3" stroke-linecap="round" stroke-linejoin="round"/>
<path d="M11.6667 6.875H8.33333C7.8731 6.875 7.5 6.5019 7.5 6.04167V4.79167C7.5 4.33144 7.8731 3.95834 8.33333 3.95834H11.6667C12.1269 3.95834 12.5 4.33144 12.5 4.79167V6.04167C12.5 6.5019 12.1269 6.875 11.6667 6.875Z" stroke="#1F1F1F" stroke-width="1.3" stroke-linecap="round" stroke-linejoin="round"/>
<path d="M8.125 10.2083H11.875" stroke="#1F1F1F" stroke-width="1.3" stroke-linecap="round" stroke-linejoin="round"/>
<path d="M8.125 12.7083H11.875" stroke="#1F1F1F" stroke-width="1.3" stroke-linecap="round" stroke-linejoin="round"/>
</svg>
