<svg width="20" height="20" viewBox="0 0 20 20" fill="none" xmlns="http://www.w3.org/2000/svg">
<path d="M10 3C13.866 3 17 6.13401 17 10C17 13.866 13.866 17 10 17C6.13401 17 3 13.866 3 10C3 6.13401 6.13401 3 10 3ZM13.1006 7.79004C12.8467 7.53634 12.4345 7.53625 12.1807 7.79004L9.14062 10.8301L8.00977 9.69922C7.75592 9.44548 7.34365 9.44541 7.08984 9.69922C6.83618 9.95304 6.83615 10.3653 7.08984 10.6191L8.68066 12.21C8.93446 12.4638 9.34673 12.4637 9.60059 12.21L13.1006 8.70996C13.3544 8.45612 13.3544 8.04388 13.1006 7.79004Z" fill="#222120"/>
</svg>
