<svg width="20" height="20" viewBox="0 0 20 20" fill="none" xmlns="http://www.w3.org/2000/svg">
<path d="M13.9583 3.95834H15.2083C15.4293 3.95834 15.6413 4.04614 15.7976 4.20242C15.9538 4.3587 16.0416 4.57066 16.0416 4.79168V6.87501M13.9583 3.95834H6.45831C5.79527 3.95834 5.15939 4.22174 4.69055 4.69058C4.22171 5.15942 3.95831 5.7953 3.95831 6.45834V13.5417C3.95831 14.2047 4.22171 14.8406 4.69055 15.3094C5.15939 15.7783 5.79527 16.0417 6.45831 16.0417H13.9583M13.9583 3.95834V6.87501M16.0416 6.87501H13.9583M16.0416 6.87501V10M13.9583 16.0417H15.2083C15.4293 16.0417 15.6413 15.9539 15.7976 15.7976C15.9538 15.6413 16.0416 15.4294 16.0416 15.2083V13.125M13.9583 16.0417V13.125M13.9583 6.87501V10M16.0416 13.125H13.9583M16.0416 13.125V10M13.9583 13.125V10M13.9583 10H16.0416M7.29165 12.7083C7.29165 12.7083 7.85415 11.4583 9.16665 11.4583C10.4791 11.4583 11.0416 12.7083 11.0416 12.7083M10.2083 8.33334C10.2083 8.60961 10.0986 8.87456 9.90322 9.06991C9.70787 9.26526 9.44291 9.37501 9.16665 9.37501C8.89038 9.37501 8.62543 9.26526 8.43008 9.06991C8.23473 8.87456 8.12498 8.60961 8.12498 8.33334C8.12498 8.05708 8.23473 7.79212 8.43008 7.59677C8.62543 7.40142 8.89038 7.29168 9.16665 7.29168C9.44291 7.29168 9.70787 7.40142 9.90322 7.59677C10.0986 7.79212 10.2083 8.05708 10.2083 8.33334Z" stroke="#1F1F1F" stroke-width="1.3" stroke-linecap="round" stroke-linejoin="round"/>
</svg>
