<svg width="20" height="20" viewBox="0 0 20 20" fill="none" xmlns="http://www.w3.org/2000/svg">
<path d="M5.62498 15.8333C5.62498 15.8333 6.66665 13.125 9.99998 13.125C13.3333 13.125 14.375 15.8333 14.375 15.8333M11.875 8.33334C11.875 8.83062 11.6774 9.30754 11.3258 9.65917C10.9742 10.0108 10.4973 10.2083 9.99998 10.2083C9.5027 10.2083 9.02579 10.0108 8.67415 9.65917C8.32252 9.30754 8.12498 8.83062 8.12498 8.33334C8.12498 7.83606 8.32252 7.35915 8.67415 7.00752C9.02579 6.65589 9.5027 6.45834 9.99998 6.45834C10.4973 6.45834 10.9742 6.65589 11.3258 7.00752C11.6774 7.35915 11.875 7.83606 11.875 8.33334ZM6.45831 16.0417H13.5416C14.2047 16.0417 14.8406 15.7783 15.3094 15.3094C15.7783 14.8406 16.0416 14.2047 16.0416 13.5417V6.45834C16.0416 5.7953 15.7783 5.15942 15.3094 4.69058C14.8406 4.22174 14.2047 3.95834 13.5416 3.95834H6.45831C5.79527 3.95834 5.15939 4.22174 4.69055 4.69058C4.22171 5.15942 3.95831 5.7953 3.95831 6.45834V13.5417C3.95831 14.2047 4.22171 14.8406 4.69055 15.3094C5.15939 15.7783 5.79527 16.0417 6.45831 16.0417Z" stroke="#1F1F1F" stroke-width="1.3" stroke-linecap="round" stroke-linejoin="round"/>
</svg>
