<svg width="20" height="20" viewBox="0 0 20 20" fill="none" xmlns="http://www.w3.org/2000/svg">
<path d="M6.875 4.79166H5.625C4.70452 4.79166 3.95833 5.53785 3.95833 6.45833V14.375C3.95833 15.2955 4.70452 16.0417 5.625 16.0417H14.375C15.2955 16.0417 16.0417 15.2955 16.0417 14.375V12.2917M4.79167 15.625L5.03207 14.9037C5.38617 13.8415 6.38027 13.125 7.5 13.125C8.61975 13.125 9.61383 13.8415 9.96792 14.9037L10.2083 15.625M9.79167 4.79166V6.87499C9.79167 7.33523 10.1647 7.70833 10.625 7.70833H11.4583V9.37499L13.3333 7.70833H15.2083C15.6686 7.70833 16.0417 7.33523 16.0417 6.87499V4.79166C16.0417 4.33143 15.6686 3.95833 15.2083 3.95833H10.625C10.1647 3.95833 9.79167 4.33143 9.79167 4.79166ZM8.54167 9.99999C8.54167 10.5753 8.0753 11.0417 7.5 11.0417C6.9247 11.0417 6.45833 10.5753 6.45833 9.99999C6.45833 9.42466 6.9247 8.95833 7.5 8.95833C8.0753 8.95833 8.54167 9.42466 8.54167 9.99999Z" stroke="#141414" stroke-width="1.3" stroke-linecap="round" stroke-linejoin="round"/>
</svg>
