<svg width="20" height="20" viewBox="0 0 20 20" fill="none" xmlns="http://www.w3.org/2000/svg">
<path d="M3.95834 5.83334C3.61316 5.83334 3.33334 6.07586 3.33334 6.37501C3.33334 6.67416 3.61316 6.91668 3.95834 6.91668V5.83334ZM16.0417 6.91668C16.3868 6.91668 16.6667 6.67416 16.6667 6.37501C16.6667 6.07586 16.3868 5.83334 16.0417 5.83334V6.91668ZM3.95834 6.91668H16.0417V5.83334H3.95834V6.91668Z" fill="#1F1F1F"/>
<path d="M5.625 9.16666C5.27983 9.16666 5 9.40918 5 9.70832C5 10.0075 5.27983 10.25 5.625 10.25V9.16666ZM14.375 10.25C14.7202 10.25 15 10.0075 15 9.70832C15 9.40918 14.7202 9.16666 14.375 9.16666V10.25ZM5.625 10.25H14.375V9.16666H5.625V10.25Z" fill="#1F1F1F"/>
<path d="M7.29166 12.5C6.94649 12.5 6.66666 12.7425 6.66666 13.0417C6.66666 13.3408 6.94649 13.5833 7.29166 13.5833V12.5ZM12.7083 13.5833C13.0535 13.5833 13.3333 13.3408 13.3333 13.0417C13.3333 12.7425 13.0535 12.5 12.7083 12.5V13.5833ZM7.29166 13.5833H12.7083V12.5H7.29166V13.5833Z" fill="#1F1F1F"/>
</svg>
