<svg width="20" height="20" viewBox="0 0 20 20" fill="none" xmlns="http://www.w3.org/2000/svg">
<path d="M16.0417 9.79168L14.7203 5.16714C14.5159 4.45164 13.862 3.95834 13.1178 3.95834H6.88218C6.13804 3.95834 5.48407 4.45164 5.27964 5.16714L3.95834 9.79168" stroke="#1F1F1F" stroke-width="1.3" stroke-linecap="round" stroke-linejoin="round"/>
<path d="M8.51184 10.3074C8.29677 10.0272 7.99557 9.79166 7.64238 9.79166H3.95834V14.375C3.95834 15.2955 4.70454 16.0417 5.62501 16.0417H14.375C15.2955 16.0417 16.0417 15.2955 16.0417 14.375V9.79166H12.3576C12.0044 9.79166 11.7033 10.0272 11.4882 10.3074C11.1454 10.7538 10.6063 11.0417 10 11.0417C9.39368 11.0417 8.85459 10.7538 8.51184 10.3074Z" stroke="#1F1F1F" stroke-width="1.3" stroke-linecap="round" stroke-linejoin="round"/>
</svg>
