<svg width="20" height="20" viewBox="0 0 20 20" fill="none" xmlns="http://www.w3.org/2000/svg">
<path d="M3.95831 5.62501V6.87501C3.95831 7.79549 4.7045 8.54168 5.62498 8.54168H6.87498C7.79545 8.54168 8.54165 7.79549 8.54165 6.87501V5.62501C8.54165 4.70454 7.79545 3.95834 6.87498 3.95834H5.62498C4.7045 3.95834 3.95831 4.70454 3.95831 5.62501Z" stroke="#1F1F1F" stroke-width="1.3" stroke-linecap="round" stroke-linejoin="round"/>
<path d="M12.2917 5.83334H16.0417" stroke="#1F1F1F" stroke-width="1.3" stroke-linecap="round" stroke-linejoin="round"/>
<path d="M14.1667 3.95834V7.70834" stroke="#1F1F1F" stroke-width="1.3" stroke-linecap="round" stroke-linejoin="round"/>
<path d="M3.95831 13.125V14.375C3.95831 15.2955 4.7045 16.0417 5.62498 16.0417H6.87498C7.79545 16.0417 8.54165 15.2955 8.54165 14.375V13.125C8.54165 12.2045 7.79545 11.4583 6.87498 11.4583H5.62498C4.7045 11.4583 3.95831 12.2045 3.95831 13.125Z" stroke="#1F1F1F" stroke-width="1.3" stroke-linecap="round" stroke-linejoin="round"/>
<path d="M11.4583 13.125V14.375C11.4583 15.2955 12.2045 16.0417 13.125 16.0417H14.375C15.2955 16.0417 16.0416 15.2955 16.0416 14.375V13.125C16.0416 12.2045 15.2955 11.4583 14.375 11.4583H13.125C12.2045 11.4583 11.4583 12.2045 11.4583 13.125Z" stroke="#1F1F1F" stroke-width="1.3" stroke-linecap="round" stroke-linejoin="round"/>
</svg>
