<svg width="20" height="20" viewBox="0 0 20 20" fill="none" xmlns="http://www.w3.org/2000/svg">
<path d="M5.41665 5.00001C5.41665 5.23013 5.2301 5.41668 4.99998 5.41668C4.76986 5.41668 4.58331 5.23013 4.58331 5.00001C4.58331 4.76989 4.76986 4.58334 4.99998 4.58334C5.2301 4.58334 5.41665 4.76989 5.41665 5.00001Z" stroke="#1F1F1F" stroke-width="1.3" stroke-linecap="round" stroke-linejoin="round"/>
<path d="M5.41665 10C5.41665 10.2301 5.2301 10.4167 4.99998 10.4167C4.76986 10.4167 4.58331 10.2301 4.58331 10C4.58331 9.76993 4.76986 9.58334 4.99998 9.58334C5.2301 9.58334 5.41665 9.76993 5.41665 10Z" stroke="#1F1F1F" stroke-width="1.3" stroke-linecap="round" stroke-linejoin="round"/>
<path d="M5.41665 15C5.41665 15.2301 5.2301 15.4167 4.99998 15.4167C4.76986 15.4167 4.58331 15.2301 4.58331 15C4.58331 14.7699 4.76986 14.5833 4.99998 14.5833C5.2301 14.5833 5.41665 14.7699 5.41665 15Z" stroke="#1F1F1F" stroke-width="1.3" stroke-linecap="round" stroke-linejoin="round"/>
<path d="M8.125 5H15.2083" stroke="#1F1F1F" stroke-width="1.3" stroke-linecap="round" stroke-linejoin="round"/>
<path d="M8.125 10H15.2083" stroke="#1F1F1F" stroke-width="1.3" stroke-linecap="round" stroke-linejoin="round"/>
<path d="M8.125 15H15.2083" stroke="#1F1F1F" stroke-width="1.3" stroke-linecap="round" stroke-linejoin="round"/>
</svg>
