<svg width="20" height="20" viewBox="0 0 20 20" fill="none" xmlns="http://www.w3.org/2000/svg">
<path d="M10 15.2083C12.9167 15.2083 16.0417 13.75 16.0417 9.99999C16.0417 6.24999 12.9167 4.79166 10 4.79166C7.08333 4.79166 3.95833 6.24999 3.95833 9.99999C3.95833 10.8582 4.12199 11.5963 4.40936 12.2244C4.58848 12.616 4.68896 13.0477 4.60962 13.4709L4.39112 14.6362C4.28312 15.2122 4.78772 15.7169 5.36376 15.6089L8.03657 15.1077C8.24667 15.0683 8.46208 15.0717 8.67317 15.1052C9.1125 15.1749 9.55867 15.2083 10 15.2083Z" stroke="#1F1F1F" stroke-width="1.3" stroke-linecap="round" stroke-linejoin="round"/>
<path d="M7.91667 10C7.91667 10.2301 7.73012 10.4167 7.5 10.4167C7.26988 10.4167 7.08333 10.2301 7.08333 10C7.08333 9.76993 7.26988 9.58334 7.5 9.58334C7.73012 9.58334 7.91667 9.76993 7.91667 10Z" stroke="#1F1F1F" stroke-width="1.3" stroke-linecap="round" stroke-linejoin="round"/>
<path d="M10.4167 10C10.4167 10.2301 10.2301 10.4167 10 10.4167C9.76992 10.4167 9.58333 10.2301 9.58333 10C9.58333 9.76993 9.76992 9.58334 10 9.58334C10.2301 9.58334 10.4167 9.76993 10.4167 10Z" stroke="#1F1F1F" stroke-width="1.3" stroke-linecap="round" stroke-linejoin="round"/>
<path d="M12.9167 10C12.9167 10.2301 12.7301 10.4167 12.5 10.4167C12.2699 10.4167 12.0833 10.2301 12.0833 10C12.0833 9.76993 12.2699 9.58334 12.5 9.58334C12.7301 9.58334 12.9167 9.76993 12.9167 10Z" stroke="#1F1F1F" stroke-width="1.3" stroke-linecap="round" stroke-linejoin="round"/>
</svg>
