<svg width="20" height="20" viewBox="0 0 20 20" fill="none" xmlns="http://www.w3.org/2000/svg">
<path d="M11.4583 16.0417H5.62499C5.18297 16.0417 4.75904 15.8661 4.44648 15.5535C4.13392 15.241 3.95833 14.817 3.95833 14.375V5.62501C3.95833 5.18298 4.13392 4.75906 4.44648 4.4465C4.75904 4.13394 5.18297 3.95834 5.62499 3.95834H14.375C14.817 3.95834 15.2409 4.13394 15.5535 4.4465C15.8661 4.75906 16.0417 5.18298 16.0417 5.62501V11.4583M11.4583 16.0417L16.0417 11.4583M11.4583 16.0417V12.2917C11.4583 12.0707 11.5461 11.8587 11.7024 11.7024C11.8587 11.5461 12.0706 11.4583 12.2917 11.4583H16.0417" stroke="#1F1F1F" stroke-width="1.3" stroke-linecap="round" stroke-linejoin="round"/>
</svg>
