<svg width="20" height="20" viewBox="0 0 20 20" fill="none" xmlns="http://www.w3.org/2000/svg">
<path d="M3.95834 6.66666H6.04168" stroke="#1F1F1F" stroke-width="1.3" stroke-linecap="round" stroke-linejoin="round"/>
<path d="M10.625 6.66666H16.0417" stroke="#1F1F1F" stroke-width="1.3" stroke-linecap="round" stroke-linejoin="round"/>
<path d="M3.95834 13.3333H10.2083" stroke="#1F1F1F" stroke-width="1.3" stroke-linecap="round" stroke-linejoin="round"/>
<path d="M14.7917 13.3333H16.0417" stroke="#1F1F1F" stroke-width="1.3" stroke-linecap="round" stroke-linejoin="round"/>
<path d="M8.33334 8.54166C9.36888 8.54166 10.2083 7.70219 10.2083 6.66666C10.2083 5.63112 9.36888 4.79166 8.33334 4.79166C7.29781 4.79166 6.45834 5.63112 6.45834 6.66666C6.45834 7.70219 7.29781 8.54166 8.33334 8.54166Z" stroke="#1F1F1F" stroke-width="1.3" stroke-linecap="round" stroke-linejoin="round"/>
<path d="M12.5 15.2083C13.5355 15.2083 14.375 14.3689 14.375 13.3333C14.375 12.2978 13.5355 11.4583 12.5 11.4583C11.4645 11.4583 10.625 12.2978 10.625 13.3333C10.625 14.3689 11.4645 15.2083 12.5 15.2083Z" stroke="#1F1F1F" stroke-width="1.3" stroke-linecap="round" stroke-linejoin="round"/>
</svg>
