<svg width="20" height="20" viewBox="0 0 20 20" fill="none" xmlns="http://www.w3.org/2000/svg">
<path d="M10.36 3.00846C14.0584 3.19599 16.9995 6.25471 16.9997 9.99967L16.9909 10.36C16.8033 14.0586 13.7448 16.9997 9.99966 16.9997L9.63931 16.9909C6.06032 16.8092 3.18993 13.9391 3.00845 10.36L2.99966 9.99967C2.99988 6.13399 6.13398 2.99988 9.99966 2.99967L10.36 3.00846ZM9.99966 4.29948C6.85195 4.29969 4.29968 6.85196 4.29947 9.99967C4.29947 13.1476 6.85182 15.6997 9.99966 15.6999C13.1477 15.6999 15.6999 13.1477 15.6999 9.99967C15.6996 6.85183 13.1476 4.29948 9.99966 4.29948ZM9.99966 5.10026C11.2991 5.10026 12.5456 5.61611 13.4645 6.53483C14.3834 7.45368 14.9 8.70023 14.9001 9.99967C14.9001 11.2992 14.3834 12.5456 13.4645 13.4645C12.5456 14.3834 11.2992 14.9001 9.99966 14.9001V5.10026Z" fill="#222120"/>
</svg>
