<svg width="20" height="20" viewBox="0 0 20 20" fill="none" xmlns="http://www.w3.org/2000/svg">
<path d="M8.86002 4.10929C9.61302 3.96357 10.387 3.96357 11.14 4.10929M11.14 15.8907C10.387 16.0364 9.61302 16.0364 8.86002 15.8907M13.3653 5.03268C14.0022 5.46421 14.5502 6.01418 14.9793 6.65265M4.10929 11.14C3.96357 10.387 3.96357 9.61302 4.10929 8.86002M14.9673 13.3653C14.5358 14.0022 13.9858 14.5502 13.3473 14.9793M15.8907 8.86002C16.0364 9.61302 16.0364 10.387 15.8907 11.14M5.03268 6.63465C5.46421 5.99778 6.01418 5.44984 6.65265 5.02068M6.63465 14.9673C5.99778 14.5358 5.44984 13.9858 5.02068 13.3473" stroke="#222120" stroke-width="1.3" stroke-linecap="round" stroke-linejoin="round"/>
</svg>
