<svg width="20" height="20" viewBox="0 0 20 20" fill="none" xmlns="http://www.w3.org/2000/svg">
<path d="M10.36 3.00846C14.0585 3.19599 16.9995 6.25471 16.9997 9.99967L16.9909 10.36C16.8034 14.0586 13.7448 16.9997 9.99969 16.9997L9.63934 16.9909C6.06035 16.8092 3.18997 13.9391 3.00848 10.36L2.99969 9.99967C2.99991 6.13399 6.13401 2.99988 9.99969 2.99967L10.36 3.00846ZM9.99969 4.29948C6.85198 4.29969 4.29971 6.85196 4.2995 9.99967C4.2995 13.1476 6.85185 15.6997 9.99969 15.6999C13.1477 15.6999 15.6999 13.1477 15.6999 9.99967C15.6997 6.85183 13.1476 4.29948 9.99969 4.29948Z" fill="#222120"/>
</svg>
