<svg width="20" height="20" viewBox="0 0 20 20" fill="none" xmlns="http://www.w3.org/2000/svg">
<path d="M14.375 15.4167H5.62499V16.6667H14.375V15.4167ZM5.62499 7.91667H7.29166V6.66667H5.62499V7.91667ZM7.91666 7.29167V5.625H6.66666V7.29167H7.91666ZM8.95833 4.58334H11.0417V3.33334H8.95833V4.58334ZM7.29166 7.91667H12.7083V6.66667H7.29166V7.91667ZM12.7083 7.91667H14.375V6.66667H12.7083V7.91667ZM12.0833 5.625V7.29167H13.3333V5.625H12.0833ZM4.58333 14.375V10.625H3.33333V14.375H4.58333ZM4.58333 10.625V8.95834H3.33333V10.625H4.58333ZM15.4167 8.95834V10.625H16.6667V8.95834H15.4167ZM15.4167 10.625V14.375H16.6667V10.625H15.4167ZM3.95833 11.25H8.95833V10H3.95833V11.25ZM9.79166 10.4167H10.2083V9.16667H9.79166V10.4167ZM10.2083 12.0833H9.79166V13.3333H10.2083V12.0833ZM9.58333 11.875V10.625H8.33333V11.875H9.58333ZM10.4167 10.625V11.875H11.6667V10.625H10.4167ZM11.0417 11.25H16.0417V10H11.0417V11.25ZM11.0417 4.58334C11.617 4.58334 12.0833 5.0497 12.0833 5.625H13.3333C13.3333 4.35935 12.3073 3.33334 11.0417 3.33334V4.58334ZM9.79166 12.0833C9.67658 12.0833 9.58333 11.9901 9.58333 11.875H8.33333C8.33333 12.6804 8.98624 13.3333 9.79166 13.3333V12.0833ZM5.62499 15.4167C5.04969 15.4167 4.58333 14.9503 4.58333 14.375H3.33333C3.33333 15.6407 4.35934 16.6667 5.62499 16.6667V15.4167ZM10.2083 13.3333C11.0137 13.3333 11.6667 12.6804 11.6667 11.875H10.4167C10.4167 11.9901 10.3234 12.0833 10.2083 12.0833V13.3333ZM14.375 16.6667C15.6407 16.6667 16.6667 15.6407 16.6667 14.375H15.4167C15.4167 14.9503 14.9503 15.4167 14.375 15.4167V16.6667ZM10.2083 10.4167C10.3234 10.4167 10.4167 10.5099 10.4167 10.625H11.6667C11.6667 9.81959 11.0137 9.16667 10.2083 9.16667V10.4167ZM14.375 7.91667C14.9503 7.91667 15.4167 8.383 15.4167 8.95834H16.6667C16.6667 7.69269 15.6407 6.66667 14.375 6.66667V7.91667ZM7.91666 5.625C7.91666 5.0497 8.38299 4.58334 8.95833 4.58334V3.33334C7.69268 3.33334 6.66666 4.35935 6.66666 5.625H7.91666ZM9.58333 10.625C9.58333 10.5099 9.67658 10.4167 9.79166 10.4167V9.16667C8.98624 9.16667 8.33333 9.81959 8.33333 10.625H9.58333ZM5.62499 6.66667C4.35934 6.66667 3.33333 7.69269 3.33333 8.95834H4.58333C4.58333 8.383 5.04969 7.91667 5.62499 7.91667V6.66667Z" fill="#1F1F1F"/>
</svg>
