<svg width="20" height="20" viewBox="0 0 20 20" fill="none" xmlns="http://www.w3.org/2000/svg">
<path d="M15.4167 9.99998C15.4167 12.9916 12.9916 15.4166 10 15.4166V16.6666C13.6819 16.6666 16.6667 13.6819 16.6667 9.99998H15.4167ZM10 15.4166C7.00846 15.4166 4.58333 12.9916 4.58333 9.99998H3.33333C3.33333 13.6819 6.3181 16.6666 10 16.6666V15.4166ZM4.58333 9.99998C4.58333 7.00844 7.00846 4.58331 10 4.58331V3.33331C6.3181 3.33331 3.33333 6.31808 3.33333 9.99998H4.58333ZM10 4.58331C12.9916 4.58331 15.4167 7.00844 15.4167 9.99998H16.6667C16.6667 6.31808 13.6819 3.33331 10 3.33331V4.58331Z" fill="#1F1F1F"/>
<path d="M11.25 8.33331C11.25 9.02365 10.6903 9.58331 10 9.58331V10.8333C11.3807 10.8333 12.5 9.71406 12.5 8.33331H11.25ZM10 9.58331C9.30967 9.58331 8.75 9.02365 8.75 8.33331H7.5C7.5 9.71406 8.61925 10.8333 10 10.8333V9.58331ZM8.75 8.33331C8.75 7.64295 9.30967 7.08331 10 7.08331V5.83331C8.61925 5.83331 7.5 6.9526 7.5 8.33331H8.75ZM10 7.08331C10.6903 7.08331 11.25 7.64295 11.25 8.33331H12.5C12.5 6.9526 11.3807 5.83331 10 5.83331V7.08331Z" fill="#1F1F1F"/>
<path d="M5.5179 13.7664C5.29685 14.0315 5.33257 14.4257 5.59768 14.6467C5.86279 14.8678 6.2569 14.832 6.47795 14.5669L5.5179 13.7664ZM13.5222 14.5669C13.7432 14.832 14.1373 14.8678 14.4024 14.6467C14.6675 14.4257 14.7033 14.0315 14.4822 13.7664L13.5222 14.5669ZM6.47795 14.5669C7.31969 13.5574 8.58475 12.9167 10.0001 12.9167V11.6667C8.1983 11.6667 6.58695 12.4843 5.5179 13.7664L6.47795 14.5669ZM10.0001 12.9167C11.4153 12.9167 12.6804 13.5574 13.5222 14.5669L14.4822 13.7664C13.4132 12.4843 11.8018 11.6667 10.0001 11.6667V12.9167Z" fill="#1F1F1F"/>
</svg>
