<svg width="20" height="20" viewBox="0 0 20 20" fill="none" xmlns="http://www.w3.org/2000/svg">
<path d="M16.0416 6.875V14.375C16.0416 15.2955 15.2955 16.0417 14.375 16.0417H5.62498C4.7045 16.0417 3.95831 15.2955 3.95831 14.375V5.625" stroke="#1F1F1F" stroke-width="1.3" stroke-linecap="round" stroke-linejoin="round"/>
<path d="M13.75 10.8333C13.75 11.0634 13.5634 11.25 13.3334 11.25C13.1033 11.25 12.9167 11.0634 12.9167 10.8333C12.9167 10.6032 13.1033 10.4167 13.3334 10.4167C13.5634 10.4167 13.75 10.6032 13.75 10.8333Z" stroke="#1F1F1F" stroke-width="1.3" stroke-linecap="round" stroke-linejoin="round"/>
<path d="M14.375 6.87501H5.41665C4.61123 6.87501 3.95831 6.22209 3.95831 5.41668C3.95831 4.61126 4.61123 3.95834 5.41665 3.95834H12.7083C13.6288 3.95834 14.375 4.70454 14.375 5.62501V6.87501ZM14.375 6.87501H16.0416" stroke="#1F1F1F" stroke-width="1.3" stroke-linecap="round" stroke-linejoin="round"/>
</svg>
